<svg xmlns="http://www.w3.org/2000/svg" xmlns:xlink="http://www.w3.org/1999/xlink" zoomAndPan="magnify" preserveAspectRatio="xMidYMid meet" version="1.0" viewBox="37.5 98.39 313.87 87.79"><defs><g/><clipPath id="dd55e81904"><path d="M 49 110 L 115.5 110 L 115.5 176.386719 L 49 176.386719 Z M 49 110 " clip-rule="nonzero"/></clipPath><clipPath id="64ae6a81c8"><path d="M 37.5 140 L 53 140 L 53 148 L 37.5 148 Z M 37.5 140 " clip-rule="nonzero"/></clipPath><clipPath id="30ed6edfc5"><path d="M 37.5 124 L 53 124 L 53 132 L 37.5 132 Z M 37.5 124 " clip-rule="nonzero"/></clipPath><clipPath id="33cc7ada90"><path d="M 63 98.386719 L 71 98.386719 L 71 114 L 63 114 Z M 63 98.386719 " clip-rule="nonzero"/></clipPath><clipPath id="624e20dd58"><path d="M 79 98.386719 L 87 98.386719 L 87 114 L 79 114 Z M 79 98.386719 " clip-rule="nonzero"/></clipPath></defs><g clip-path="url(#dd55e81904)"><path fill="#03acee" d="M 104.160156 110.253906 L 49.375 165.039062 C 49.835938 165.5 50.585938 165.5 51.046875 165.039062 L 55.210938 160.871094 L 54.609375 163.894531 C 54.484375 164.535156 54.902344 165.152344 55.539062 165.28125 C 56.179688 165.40625 56.796875 164.988281 56.925781 164.351562 L 58.21875 157.859375 L 64.230469 151.847656 L 62.632812 160.414062 C 62.511719 161.054688 62.9375 161.671875 63.574219 161.792969 C 64.214844 161.914062 64.832031 161.488281 64.953125 160.851562 L 67.1875 148.890625 L 75.578125 140.5 L 75.578125 152.363281 L 68.703125 162.402344 C 68.332031 162.9375 68.46875 163.671875 69.011719 164.042969 C 69.550781 164.410156 70.285156 164.273438 70.652344 163.738281 L 75.578125 156.542969 L 75.578125 165.046875 L 71.90625 170.550781 C 71.546875 171.09375 71.6875 171.828125 72.230469 172.191406 C 72.777344 172.550781 73.511719 172.410156 73.871094 171.863281 L 75.578125 169.304688 L 75.578125 175.203125 C 75.578125 175.527344 75.710938 175.824219 75.921875 176.039062 C 76.136719 176.25 76.433594 176.386719 76.757812 176.386719 C 77.410156 176.386719 77.941406 175.855469 77.941406 175.203125 L 77.941406 169.3125 L 79.644531 171.871094 C 80.003906 172.410156 80.742188 172.558594 81.285156 172.199219 C 81.828125 171.835938 81.972656 171.101562 81.609375 170.554688 L 77.9375 165.046875 L 77.9375 156.550781 L 82.863281 163.738281 C 83.230469 164.273438 83.964844 164.410156 84.503906 164.046875 C 85.042969 163.679688 85.183594 162.945312 84.816406 162.40625 L 77.9375 152.371094 L 77.9375 140.507812 L 86.328125 148.898438 L 88.5625 160.859375 C 88.683594 161.503906 89.300781 161.917969 89.941406 161.804688 C 90.585938 161.6875 91.003906 161.070312 90.890625 160.425781 L 89.285156 151.859375 L 95.296875 157.875 L 96.59375 164.367188 C 96.71875 165.003906 97.34375 165.421875 97.984375 165.292969 C 98.621094 165.167969 99.039062 164.542969 98.914062 163.90625 L 98.3125 160.894531 L 102.476562 165.058594 C 102.9375 165.519531 103.6875 165.519531 104.148438 165.058594 C 104.605469 164.601562 104.605469 163.851562 104.148438 163.390625 L 99.980469 159.222656 L 103 159.824219 C 103.636719 159.953125 104.265625 159.535156 104.386719 158.898438 C 104.515625 158.253906 104.097656 157.632812 103.460938 157.503906 L 96.96875 156.210938 L 90.953125 150.199219 L 99.519531 151.804688 C 100.164062 151.925781 100.78125 151.5 100.898438 150.855469 C 101.019531 150.210938 100.597656 149.597656 99.953125 149.476562 L 87.992188 147.242188 L 79.601562 138.851562 L 91.472656 138.851562 L 101.507812 145.726562 C 102.046875 146.097656 102.78125 145.960938 103.15625 145.417969 C 103.523438 144.878906 103.390625 144.144531 102.84375 143.777344 L 95.660156 138.851562 L 104.152344 138.851562 L 109.664062 142.523438 C 110.207031 142.882812 110.9375 142.734375 111.304688 142.199219 C 111.667969 141.652344 111.523438 140.917969 110.980469 140.558594 L 108.417969 138.851562 L 114.3125 138.851562 C 114.636719 138.851562 114.933594 138.71875 115.144531 138.507812 C 115.359375 138.292969 115.492188 137.996094 115.492188 137.671875 C 115.492188 137.019531 114.960938 136.488281 114.3125 136.488281 L 108.414062 136.488281 L 110.972656 134.785156 C 111.515625 134.425781 111.660156 133.6875 111.296875 133.144531 C 110.9375 132.597656 110.203125 132.457031 109.65625 132.820312 L 104.152344 136.488281 L 95.652344 136.488281 L 102.84375 131.566406 C 103.382812 131.199219 103.515625 130.464844 103.148438 129.925781 C 102.78125 129.386719 102.046875 129.246094 101.507812 129.613281 L 91.472656 136.488281 L 79.601562 136.488281 L 87.992188 128.101562 L 99.953125 125.867188 C 100.597656 125.746094 101.011719 125.128906 100.894531 124.484375 C 100.773438 123.84375 100.15625 123.417969 99.515625 123.546875 L 90.949219 125.144531 L 96.960938 119.132812 L 103.453125 117.835938 C 104.097656 117.710938 104.507812 117.085938 104.378906 116.449219 C 104.253906 115.808594 103.628906 115.398438 102.992188 115.523438 L 99.972656 116.125 L 104.140625 111.957031 C 104.621094 111.464844 104.621094 110.722656 104.160156 110.253906 Z M 104.160156 110.253906 " fill-opacity="1" fill-rule="nonzero"/></g><path fill="#e67e22" d="M 55.6875 152.792969 L 47.847656 160.632812 C 47.054688 161.425781 47.054688 162.71875 47.847656 163.511719 L 58.566406 152.792969 C 57.765625 151.996094 56.476562 151.996094 55.6875 152.792969 Z M 55.6875 152.792969 " fill-opacity="1" fill-rule="nonzero"/><g clip-path="url(#64ae6a81c8)"><path fill="#e67e22" d="M 52.515625 142.445312 L 52.398438 141.984375 C 52.140625 141.023438 51.152344 140.457031 50.195312 140.714844 L 39.035156 143.703125 C 38.074219 143.960938 37.507812 144.949219 37.761719 145.90625 L 37.882812 146.363281 C 38.136719 147.328125 39.125 147.890625 40.082031 147.636719 L 51.242188 144.644531 C 52.207031 144.390625 52.777344 143.40625 52.515625 142.445312 Z M 52.515625 142.445312 " fill-opacity="1" fill-rule="nonzero"/></g><g clip-path="url(#30ed6edfc5)"><path fill="#e67e22" d="M 52.398438 130.242188 L 52.515625 129.785156 C 52.773438 128.824219 52.207031 127.839844 51.242188 127.585938 L 40.082031 124.59375 C 39.121094 124.335938 38.136719 124.902344 37.882812 125.867188 L 37.761719 126.324219 C 37.507812 127.289062 38.074219 128.269531 39.035156 128.523438 L 50.195312 131.515625 C 51.152344 131.773438 52.140625 131.199219 52.398438 130.242188 Z M 52.398438 130.242188 " fill-opacity="1" fill-rule="nonzero"/></g><path fill="#e67e22" d="M 58.394531 119.605469 L 58.726562 119.273438 C 59.429688 118.574219 59.429688 117.433594 58.726562 116.726562 L 50.558594 108.554688 C 49.859375 107.855469 48.71875 107.855469 48.011719 108.554688 L 47.679688 108.890625 C 46.980469 109.589844 46.980469 110.726562 47.679688 111.433594 L 55.847656 119.605469 C 56.554688 120.3125 57.695312 120.3125 58.394531 119.605469 Z M 58.394531 119.605469 " fill-opacity="1" fill-rule="nonzero"/><g clip-path="url(#33cc7ada90)"><path fill="#e67e22" d="M 68.90625 113.394531 L 69.367188 113.273438 C 70.328125 113.019531 70.894531 112.03125 70.640625 111.074219 L 67.648438 99.914062 C 67.394531 98.949219 66.402344 98.386719 65.449219 98.640625 L 64.988281 98.757812 C 64.027344 99.015625 63.460938 100.003906 63.714844 100.960938 L 66.707031 112.121094 C 66.960938 113.082031 67.945312 113.65625 68.90625 113.394531 Z M 68.90625 113.394531 " fill-opacity="1" fill-rule="nonzero"/></g><g clip-path="url(#624e20dd58)"><path fill="#e67e22" d="M 81.117188 113.273438 L 81.574219 113.394531 C 82.539062 113.648438 83.519531 113.082031 83.773438 112.121094 L 86.765625 100.960938 C 87.023438 99.996094 86.457031 99.015625 85.492188 98.757812 L 85.035156 98.640625 C 84.070312 98.386719 83.089844 98.949219 82.835938 99.914062 L 79.84375 111.074219 C 79.585938 112.03125 80.152344 113.019531 81.117188 113.273438 Z M 81.117188 113.273438 " fill-opacity="1" fill-rule="nonzero"/></g><path fill="#e67e22" d="M 61.515625 122.390625 C 53.9375 129.96875 53.9375 142.261719 61.515625 149.835938 L 88.960938 122.390625 C 81.382812 114.816406 69.089844 114.816406 61.515625 122.390625 Z M 61.515625 122.390625 " fill-opacity="1" fill-rule="nonzero"/><path fill="#e67e22" d="M 99.746094 108.726562 L 91.910156 116.5625 C 91.117188 117.355469 91.117188 118.652344 91.910156 119.441406 L 102.632812 108.726562 C 102.238281 108.332031 101.714844 108.132812 101.191406 108.132812 C 100.667969 108.132812 100.152344 108.324219 99.746094 108.726562 Z M 99.746094 108.726562 " fill-opacity="1" fill-rule="nonzero"/><g fill="#03acee" fill-opacity="1"><g transform="translate(78.485529, 186.050143)"><g><path d="M 11.40625 -7 L 9.125 0 L 7.375 0 L 5.84375 -4.734375 L 4.25 0 L 2.515625 0 L 0.21875 -7 L 1.90625 -7 L 3.484375 -2.078125 L 5.125 -7 L 6.625 -7 L 8.234375 -2.046875 L 9.859375 -7 Z M 11.40625 -7 "/></g></g></g><g fill="#03acee" fill-opacity="1"><g transform="translate(98.11218, 186.050143)"><g><path d="M 6.25 -1.296875 L 6.25 0 L 0.828125 0 L 0.828125 -7 L 6.125 -7 L 6.125 -5.703125 L 2.4375 -5.703125 L 2.4375 -4.1875 L 5.6875 -4.1875 L 5.6875 -2.921875 L 2.4375 -2.921875 L 2.4375 -1.296875 Z M 6.25 -1.296875 "/></g></g></g><g fill="#03acee" fill-opacity="1"><g transform="translate(112.820777, 186.050143)"><g><path d="M 5.4375 -1.5 L 2.1875 -1.5 L 1.5625 0 L -0.09375 0 L 3.03125 -7 L 4.625 -7 L 7.765625 0 L 6.0625 0 Z M 4.9375 -2.734375 L 3.8125 -5.40625 L 2.703125 -2.734375 Z M 4.9375 -2.734375 "/></g></g></g><g fill="#03acee" fill-opacity="1"><g transform="translate(128.478995, 186.050143)"><g><path d="M 2.28125 -5.6875 L 0.046875 -5.6875 L 0.046875 -7 L 6.140625 -7 L 6.140625 -5.6875 L 3.90625 -5.6875 L 3.90625 0 L 2.28125 0 Z M 2.28125 -5.6875 "/></g></g></g><g fill="#03acee" fill-opacity="1"><g transform="translate(142.6578, 186.050143)"><g><path d="M 7.25 -7 L 7.25 0 L 5.625 0 L 5.625 -2.875 L 2.453125 -2.875 L 2.453125 0 L 0.828125 0 L 0.828125 -7 L 2.453125 -7 L 2.453125 -4.234375 L 5.625 -4.234375 L 5.625 -7 Z M 7.25 -7 "/></g></g></g><g fill="#03acee" fill-opacity="1"><g transform="translate(158.735855, 186.050143)"><g><path d="M 6.25 -1.296875 L 6.25 0 L 0.828125 0 L 0.828125 -7 L 6.125 -7 L 6.125 -5.703125 L 2.4375 -5.703125 L 2.4375 -4.1875 L 5.6875 -4.1875 L 5.6875 -2.921875 L 2.4375 -2.921875 L 2.4375 -1.296875 Z M 6.25 -1.296875 "/></g></g></g><g fill="#03acee" fill-opacity="1"><g transform="translate(173.444453, 186.050143)"><g><path d="M 5.296875 0 L 3.9375 -1.953125 L 2.453125 -1.953125 L 2.453125 0 L 0.828125 0 L 0.828125 -7 L 3.859375 -7 C 4.484375 -7 5.019531 -6.894531 5.46875 -6.6875 C 5.925781 -6.476562 6.28125 -6.179688 6.53125 -5.796875 C 6.78125 -5.421875 6.90625 -4.972656 6.90625 -4.453125 C 6.90625 -3.941406 6.78125 -3.492188 6.53125 -3.109375 C 6.28125 -2.734375 5.921875 -2.445312 5.453125 -2.25 L 7.03125 0 Z M 5.265625 -4.453125 C 5.265625 -4.847656 5.132812 -5.148438 4.875 -5.359375 C 4.625 -5.578125 4.253906 -5.6875 3.765625 -5.6875 L 2.453125 -5.6875 L 2.453125 -3.234375 L 3.765625 -3.234375 C 4.253906 -3.234375 4.625 -3.335938 4.875 -3.546875 C 5.132812 -3.765625 5.265625 -4.066406 5.265625 -4.453125 Z M 5.265625 -4.453125 "/></g></g></g><g fill="#03acee" fill-opacity="1"><g transform="translate(188.792799, 186.050143)"><g/></g></g><g fill="#03acee" fill-opacity="1"><g transform="translate(199.622926, 186.050143)"><g><path d="M 5.4375 -1.5 L 2.1875 -1.5 L 1.5625 0 L -0.09375 0 L 3.03125 -7 L 4.625 -7 L 7.765625 0 L 6.0625 0 Z M 4.9375 -2.734375 L 3.8125 -5.40625 L 2.703125 -2.734375 Z M 4.9375 -2.734375 "/></g></g></g><g fill="#03acee" fill-opacity="1"><g transform="translate(215.281143, 186.050143)"><g><path d="M 3.859375 -7 C 4.484375 -7 5.019531 -6.894531 5.46875 -6.6875 C 5.925781 -6.476562 6.28125 -6.179688 6.53125 -5.796875 C 6.78125 -5.421875 6.90625 -4.972656 6.90625 -4.453125 C 6.90625 -3.941406 6.78125 -3.492188 6.53125 -3.109375 C 6.28125 -2.734375 5.925781 -2.441406 5.46875 -2.234375 C 5.019531 -2.035156 4.484375 -1.9375 3.859375 -1.9375 L 2.453125 -1.9375 L 2.453125 0 L 0.828125 0 L 0.828125 -7 Z M 3.765625 -3.25 C 4.253906 -3.25 4.625 -3.351562 4.875 -3.5625 C 5.132812 -3.769531 5.265625 -4.066406 5.265625 -4.453125 C 5.265625 -4.847656 5.132812 -5.148438 4.875 -5.359375 C 4.625 -5.578125 4.253906 -5.6875 3.765625 -5.6875 L 2.453125 -5.6875 L 2.453125 -3.25 Z M 3.765625 -3.25 "/></g></g></g><g fill="#03acee" fill-opacity="1"><g transform="translate(230.599494, 186.050143)"><g><path d="M 3.859375 -7 C 4.484375 -7 5.019531 -6.894531 5.46875 -6.6875 C 5.925781 -6.476562 6.28125 -6.179688 6.53125 -5.796875 C 6.78125 -5.421875 6.90625 -4.972656 6.90625 -4.453125 C 6.90625 -3.941406 6.78125 -3.492188 6.53125 -3.109375 C 6.28125 -2.734375 5.925781 -2.441406 5.46875 -2.234375 C 5.019531 -2.035156 4.484375 -1.9375 3.859375 -1.9375 L 2.453125 -1.9375 L 2.453125 0 L 0.828125 0 L 0.828125 -7 Z M 3.765625 -3.25 C 4.253906 -3.25 4.625 -3.351562 4.875 -3.5625 C 5.132812 -3.769531 5.265625 -4.066406 5.265625 -4.453125 C 5.265625 -4.847656 5.132812 -5.148438 4.875 -5.359375 C 4.625 -5.578125 4.253906 -5.6875 3.765625 -5.6875 L 2.453125 -5.6875 L 2.453125 -3.25 Z M 3.765625 -3.25 "/></g></g></g><g fill="#03acee" fill-opacity="1"><g transform="translate(245.917845, 186.050143)"><g><path d="M 0.828125 -7 L 2.453125 -7 L 2.453125 -1.3125 L 5.953125 -1.3125 L 5.953125 0 L 0.828125 0 Z M 0.828125 -7 "/></g></g></g><g fill="#03acee" fill-opacity="1"><g transform="translate(259.9567, 186.050143)"><g><path d="M 0.828125 -7 L 2.453125 -7 L 2.453125 0 L 0.828125 0 Z M 0.828125 -7 "/></g></g></g><g fill="#03acee" fill-opacity="1"><g transform="translate(271.23666, 186.050143)"><g><path d="M 4.1875 0.125 C 3.46875 0.125 2.816406 -0.03125 2.234375 -0.34375 C 1.660156 -0.65625 1.207031 -1.082031 0.875 -1.625 C 0.550781 -2.175781 0.390625 -2.800781 0.390625 -3.5 C 0.390625 -4.195312 0.550781 -4.816406 0.875 -5.359375 C 1.207031 -5.910156 1.660156 -6.34375 2.234375 -6.65625 C 2.816406 -6.96875 3.46875 -7.125 4.1875 -7.125 C 4.789062 -7.125 5.335938 -7.015625 5.828125 -6.796875 C 6.316406 -6.585938 6.726562 -6.28125 7.0625 -5.875 L 6.03125 -4.921875 C 5.550781 -5.460938 4.960938 -5.734375 4.265625 -5.734375 C 3.835938 -5.734375 3.453125 -5.640625 3.109375 -5.453125 C 2.765625 -5.265625 2.5 -5 2.3125 -4.65625 C 2.125 -4.320312 2.03125 -3.9375 2.03125 -3.5 C 2.03125 -3.0625 2.125 -2.671875 2.3125 -2.328125 C 2.5 -1.992188 2.765625 -1.734375 3.109375 -1.546875 C 3.453125 -1.359375 3.835938 -1.265625 4.265625 -1.265625 C 4.960938 -1.265625 5.550781 -1.539062 6.03125 -2.09375 L 7.0625 -1.125 C 6.726562 -0.71875 6.316406 -0.40625 5.828125 -0.1875 C 5.335938 0.0195312 4.789062 0.125 4.1875 0.125 Z M 4.1875 0.125 "/></g></g></g><g fill="#03acee" fill-opacity="1"><g transform="translate(286.565013, 186.050143)"><g><path d="M 5.4375 -1.5 L 2.1875 -1.5 L 1.5625 0 L -0.09375 0 L 3.03125 -7 L 4.625 -7 L 7.765625 0 L 6.0625 0 Z M 4.9375 -2.734375 L 3.8125 -5.40625 L 2.703125 -2.734375 Z M 4.9375 -2.734375 "/></g></g></g><g fill="#03acee" fill-opacity="1"><g transform="translate(302.223231, 186.050143)"><g><path d="M 2.28125 -5.6875 L 0.046875 -5.6875 L 0.046875 -7 L 6.140625 -7 L 6.140625 -5.6875 L 3.90625 -5.6875 L 3.90625 0 L 2.28125 0 Z M 2.28125 -5.6875 "/></g></g></g><g fill="#03acee" fill-opacity="1"><g transform="translate(316.402047, 186.050143)"><g><path d="M 0.828125 -7 L 2.453125 -7 L 2.453125 0 L 0.828125 0 Z M 0.828125 -7 "/></g></g></g><g fill="#03acee" fill-opacity="1"><g transform="translate(327.681984, 186.050143)"><g><path d="M 4.21875 0.125 C 3.488281 0.125 2.832031 -0.03125 2.25 -0.34375 C 1.664062 -0.65625 1.207031 -1.085938 0.875 -1.640625 C 0.550781 -2.191406 0.390625 -2.8125 0.390625 -3.5 C 0.390625 -4.1875 0.550781 -4.804688 0.875 -5.359375 C 1.207031 -5.910156 1.664062 -6.34375 2.25 -6.65625 C 2.832031 -6.96875 3.488281 -7.125 4.21875 -7.125 C 4.945312 -7.125 5.597656 -6.96875 6.171875 -6.65625 C 6.753906 -6.34375 7.210938 -5.910156 7.546875 -5.359375 C 7.878906 -4.804688 8.046875 -4.1875 8.046875 -3.5 C 8.046875 -2.8125 7.878906 -2.191406 7.546875 -1.640625 C 7.210938 -1.085938 6.753906 -0.65625 6.171875 -0.34375 C 5.597656 -0.03125 4.945312 0.125 4.21875 0.125 Z M 4.21875 -1.265625 C 4.632812 -1.265625 5.007812 -1.359375 5.34375 -1.546875 C 5.675781 -1.734375 5.9375 -1.992188 6.125 -2.328125 C 6.3125 -2.671875 6.40625 -3.0625 6.40625 -3.5 C 6.40625 -3.9375 6.3125 -4.320312 6.125 -4.65625 C 5.9375 -5 5.675781 -5.265625 5.34375 -5.453125 C 5.007812 -5.640625 4.632812 -5.734375 4.21875 -5.734375 C 3.800781 -5.734375 3.425781 -5.640625 3.09375 -5.453125 C 2.757812 -5.265625 2.5 -5 2.3125 -4.65625 C 2.125 -4.320312 2.03125 -3.9375 2.03125 -3.5 C 2.03125 -3.0625 2.125 -2.671875 2.3125 -2.328125 C 2.5 -1.992188 2.757812 -1.734375 3.09375 -1.546875 C 3.425781 -1.359375 3.800781 -1.265625 4.21875 -1.265625 Z M 4.21875 -1.265625 "/></g></g></g><g fill="#03acee" fill-opacity="1"><g transform="translate(344.11991, 186.050143)"><g><path d="M 7.25 -7 L 7.25 0 L 5.921875 0 L 2.4375 -4.25 L 2.4375 0 L 0.828125 0 L 0.828125 -7 L 2.171875 -7 L 5.65625 -2.75 L 5.65625 -7 Z M 7.25 -7 "/></g></g></g><g fill="#ffffff" fill-opacity="1"><g transform="translate(121.101902, 171.025784)"><g><path d="M 9.285156 0.269531 C 13.171875 0.269531 16.308594 -1.570312 16.308594 -5.382812 C 16.308594 -9.425781 12.675781 -10.359375 9.46875 -11.207031 C 6.882812 -11.871094 4.621094 -12.492188 4.621094 -14.710938 C 4.621094 -17.058594 6.710938 -17.976562 8.777344 -17.976562 C 11.078125 -17.976562 13.03125 -16.957031 13.636719 -14.726562 L 15.996094 -15.332031 C 15.25 -18.667969 12.183594 -20.167969 8.675781 -20.167969 C 5.144531 -20.167969 2.078125 -18.34375 2.078125 -14.667969 C 2.078125 -10.996094 5.160156 -10.046875 8.265625 -9.214844 C 11.039062 -8.464844 13.679688 -7.816406 13.722656 -5.3125 C 13.765625 -2.8125 11.574219 -1.90625 9.328125 -1.90625 C 6.628906 -1.90625 4.578125 -3.234375 3.972656 -5.597656 L 1.484375 -5.003906 C 2.164062 -1.710938 5.144531 0.269531 9.285156 0.269531 Z M 9.285156 0.269531 "/></g></g></g><g fill="#ffffff" fill-opacity="1"><g transform="translate(139.637217, 171.025784)"><g><path d="M 9.566406 -10.414062 L 17.382812 -19.898438 L 14.273438 -19.898438 L 7.375 -11.488281 L 5.652344 -11.488281 L 5.652344 -19.898438 L 3.125 -19.898438 L 3.125 0 L 5.652344 0 L 5.652344 -9.199219 L 7.375 -9.199219 L 14.554688 0 L 17.804688 0 Z M 9.566406 -10.414062 "/></g></g></g><g fill="#ffffff" fill-opacity="1"><g transform="translate(158.780019, 171.025784)"><g><path d="M 7.191406 0 L 9.738281 0 L 9.738281 -9.496094 L 16.28125 -19.898438 L 13.410156 -19.898438 L 8.464844 -11.773438 L 3.519531 -19.898438 L 0.636719 -19.898438 L 7.191406 -9.46875 Z M 7.191406 0 "/></g></g></g><g fill="#ffffff" fill-opacity="1"><g transform="translate(176.269883, 171.025784)"><g/></g></g><g fill="#ffffff" fill-opacity="1"><g transform="translate(184.364797, 171.025784)"><g><path d="M 13.523438 -19.898438 L 0.792969 -19.898438 L 0.792969 -17.59375 L 5.90625 -17.59375 L 5.90625 0 L 8.421875 0 L 8.421875 -17.59375 L 13.523438 -17.59375 Z M 13.523438 -19.898438 "/></g></g></g><g fill="#ffffff" fill-opacity="1"><g transform="translate(199.255156, 171.025784)"><g><path d="M 16.84375 0 L 11.886719 -8 C 12.902344 -8.238281 13.722656 -8.648438 14.386719 -9.214844 C 15.742188 -10.261719 16.40625 -11.96875 16.40625 -14.117188 C 16.40625 -16.265625 15.699219 -17.792969 14.273438 -18.710938 C 13.113281 -19.515625 11.476562 -19.898438 9.242188 -19.898438 L 3.125 -19.898438 L 3.125 0 L 5.652344 0 L 5.652344 -7.730469 L 9.410156 -7.730469 L 13.890625 0 Z M 5.652344 -17.707031 L 8.917969 -17.707031 C 10.65625 -17.707031 11.914062 -17.523438 12.761719 -16.832031 C 13.425781 -16.28125 13.820312 -15.375 13.820312 -14.019531 C 13.820312 -12.605469 13.453125 -11.660156 12.804688 -11.023438 C 12 -10.203125 10.699219 -9.933594 8.917969 -9.933594 L 5.652344 -9.933594 Z M 5.652344 -17.707031 "/></g></g></g><g fill="#ffffff" fill-opacity="1"><g transform="translate(218.242563, 171.025784)"><g><path d="M 15.898438 0 L 18.542969 0 L 11.207031 -19.898438 L 8.183594 -19.898438 L 0.847656 0 L 3.492188 0 L 5.1875 -4.761719 L 14.1875 -4.761719 Z M 5.992188 -6.996094 L 9.695312 -17.355469 L 13.398438 -6.996094 Z M 5.992188 -6.996094 "/></g></g></g><g fill="#ffffff" fill-opacity="1"><g transform="translate(238.204777, 171.025784)"><g><path d="M 11.644531 0.269531 C 15.574219 0.269531 18.878906 -1.667969 20.433594 -5.015625 L 18.101562 -5.964844 C 16.886719 -3.503906 14.484375 -2.148438 11.644531 -2.148438 C 7.519531 -2.148438 4.253906 -4.972656 4.253906 -9.964844 C 4.253906 -14.921875 7.519531 -17.75 11.644531 -17.75 C 14.484375 -17.75 16.886719 -16.378906 18.101562 -13.921875 L 20.433594 -14.882812 C 18.878906 -18.214844 15.574219 -20.167969 11.644531 -20.167969 C 6.035156 -20.167969 1.738281 -16.308594 1.738281 -9.964844 C 1.738281 -3.589844 6.035156 0.269531 11.644531 0.269531 Z M 11.644531 0.269531 "/></g></g></g><g fill="#ffffff" fill-opacity="1"><g transform="translate(260.427428, 171.025784)"><g><path d="M 9.566406 -10.414062 L 17.382812 -19.898438 L 14.273438 -19.898438 L 7.375 -11.488281 L 5.652344 -11.488281 L 5.652344 -19.898438 L 3.125 -19.898438 L 3.125 0 L 5.652344 0 L 5.652344 -9.199219 L 7.375 -9.199219 L 14.554688 0 L 17.804688 0 Z M 9.566406 -10.414062 "/></g></g></g><g fill="#ffffff" fill-opacity="1"><g transform="translate(279.570234, 171.025784)"><g><path d="M 13.792969 -17.59375 L 13.792969 -19.898438 L 3.125 -19.898438 L 3.125 0 L 13.792969 0 L 13.792969 -2.304688 L 5.710938 -2.304688 L 5.710938 -8.804688 L 12.832031 -8.804688 L 12.832031 -11.078125 L 5.710938 -11.078125 L 5.710938 -17.59375 Z M 13.792969 -17.59375 "/></g></g></g><g fill="#ffffff" fill-opacity="1"><g transform="translate(295.66145, 171.025784)"><g><path d="M 16.84375 0 L 11.886719 -8 C 12.902344 -8.238281 13.722656 -8.648438 14.386719 -9.214844 C 15.742188 -10.261719 16.40625 -11.96875 16.40625 -14.117188 C 16.40625 -16.265625 15.699219 -17.792969 14.273438 -18.710938 C 13.113281 -19.515625 11.476562 -19.898438 9.242188 -19.898438 L 3.125 -19.898438 L 3.125 0 L 5.652344 0 L 5.652344 -7.730469 L 9.410156 -7.730469 L 13.890625 0 Z M 5.652344 -17.707031 L 8.917969 -17.707031 C 10.65625 -17.707031 11.914062 -17.523438 12.761719 -16.832031 C 13.425781 -16.28125 13.820312 -15.375 13.820312 -14.019531 C 13.820312 -12.605469 13.453125 -11.660156 12.804688 -11.023438 C 12 -10.203125 10.699219 -9.933594 8.917969 -9.933594 L 5.652344 -9.933594 Z M 5.652344 -17.707031 "/></g></g></g><g fill="#000000" fill-opacity="1"><g transform="translate(217.875333, 202.525782)"><g/></g></g></svg>